#tb 0: 1/44100
#media_type 0: audio
#codec_id 0: pcm_s16le
#sample_rate 0: 44100
#channel_layout_name 0: stereo
0,          0,          0,      682,     2728, 0x35c15e81
0,        682,        682,      682,     2728, 0x770f2e2d
0,       1364,       1364,      682,     2728, 0x6f8d6d9f
0,       2046,       2046,      682,     2728, 0x5b9e46f3
0,       2728,       2728,      682,     2728, 0xda7e5fdc
0,       3410,       3410,      682,     2728, 0x55e446f8
0,       4092,       4092,      682,     2728, 0x4fcf4f8e
0,       4774,       4774,      682,     2728, 0x86e757b2
0,       5456,       5456,      682,     2728, 0x8d4256e9
0,       6138,       6138,      682,     2728, 0xa28d4e58
0,       6820,       6820,      682,     2728, 0xacaa5738
0,       7502,       7502,      682,     2728, 0xd1fe580f
0,       8184,       8184,      682,     2728, 0x09a05c0a
0,       8866,       8866,      682,     2728, 0xcaf2555d
0,       9548,       9548,      682,     2728, 0xcee159fc
0,      10230,      10230,      682,     2728, 0xaa3444a5
0,      10912,      10912,      682,     2728, 0x23b76512
0,      11594,      11594,      682,     2728, 0xef2243dd
0,      12276,      12276,      682,     2728, 0x36486118
0,      12958,      12958,      682,     2728, 0xfd59626c
